<?xml version="1.0" encoding="UTF-8" standalone="no"?>
<!-- Created with Inkscape (http://www.inkscape.org/) -->

<svg
   xmlns:dc="http://purl.org/dc/elements/1.1/"
   xmlns:cc="http://creativecommons.org/ns#"
   xmlns:rdf="http://www.w3.org/1999/02/22-rdf-syntax-ns#"
   xmlns:svg="http://www.w3.org/2000/svg"
   xmlns="http://www.w3.org/2000/svg"
   xmlns:sodipodi="http://sodipodi.sourceforge.net/DTD/sodipodi-0.dtd"
   xmlns:inkscape="http://www.inkscape.org/namespaces/inkscape"
   width="24mm"
   height="24mm"
   viewBox="0 0 24 24"
   version="1.1"
   id="svg306"
   inkscape:version="0.92.3 (2405546, 2018-03-11)"
   sodipodi:docname="note.svg">
  <defs
     id="defs300" />
  <sodipodi:namedview
     id="base"
     pagecolor="#ffffff"
     bordercolor="#666666"
     borderopacity="1.0"
     inkscape:pageopacity="0.0"
     inkscape:pageshadow="2"
     inkscape:zoom="7.9195959"
     inkscape:cx="48.080796"
     inkscape:cy="49.532868"
     inkscape:document-units="mm"
     inkscape:current-layer="layer1"
     showgrid="false"
     inkscape:window-width="1920"
     inkscape:window-height="1051"
     inkscape:window-x="-9"
     inkscape:window-y="-9"
     inkscape:window-maximized="1" />
  <metadata
     id="metadata303">
    <rdf:RDF>
      <cc:Work
         rdf:about="">
        <dc:format>image/svg+xml</dc:format>
        <dc:type
           rdf:resource="http://purl.org/dc/dcmitype/StillImage" />
        <dc:title></dc:title>
      </cc:Work>
    </rdf:RDF>
  </metadata>
  <g
     inkscape:label="Layer 1"
     inkscape:groupmode="layer"
     id="layer1"
     transform="translate(0,-273)">
    <path
       inkscape:connector-curvature="0"
       style="fill:#2c2c2c;fill-opacity:1;fill-rule:evenodd;stroke:none;stroke-width:0.1101981"
       d="M 12.168733,275.78426 V 290.368 c -0.632139,-0.49193 -1.694894,-0.64243 -2.7746938,-0.318 -1.5099375,0.45392 -2.4807499,1.66399 -2.1685577,2.70271 0.3123023,1.03906 1.7892299,1.51331 3.2991585,1.05975 1.300245,-0.3908 2.199873,-1.3425 2.225378,-2.26283 l 0.0013,-10e-6 -1.5e-5,-0.0442 10e-7,-12.10334 c 0.209479,0.22321 0.530021,0.51061 1.022293,0.85765 1.679419,1.18418 2.606659,3.20974 1.171768,5.48014 l 0.282342,-3e-5 c 0,0 2.084633,-2.90829 -0.232611,-5.97587 -1.182857,-1.56581 -1.940837,-1.80067 -2.243771,-3.97973 z"
       id="path48" />
  </g>
</svg>
