<?xml version="1.0" encoding="UTF-8" standalone="no"?>
<svg
   xmlns:dc="http://purl.org/dc/elements/1.1/"
   xmlns:cc="http://creativecommons.org/ns#"
   xmlns:rdf="http://www.w3.org/1999/02/22-rdf-syntax-ns#"
   xmlns:svg="http://www.w3.org/2000/svg"
   xmlns="http://www.w3.org/2000/svg"
   xmlns:sodipodi="http://sodipodi.sourceforge.net/DTD/sodipodi-0.dtd"
   xmlns:inkscape="http://www.inkscape.org/namespaces/inkscape"
   enable-background="new 0 0 24 24"
   height="24"
   viewBox="0 0 24 24"
   width="24"
   version="1.1"
   id="svg20"
   sodipodi:docname="support_agent-24px.svg"
   inkscape:version="0.92.4 (5da689c313, 2019-01-14)">
  <metadata
     id="metadata26">
    <rdf:RDF>
      <cc:Work
         rdf:about="">
        <dc:format>image/svg+xml</dc:format>
        <dc:type
           rdf:resource="http://purl.org/dc/dcmitype/StillImage" />
        <dc:title></dc:title>
      </cc:Work>
    </rdf:RDF>
  </metadata>
  <defs
     id="defs24" />
  <sodipodi:namedview
     pagecolor="#ffffff"
     bordercolor="#666666"
     borderopacity="1"
     objecttolerance="10"
     gridtolerance="10"
     guidetolerance="10"
     inkscape:pageopacity="0"
     inkscape:pageshadow="2"
     inkscape:window-width="1825"
     inkscape:window-height="1046"
     id="namedview22"
     showgrid="true"
     inkscape:zoom="55.625733"
     inkscape:cx="13.73027"
     inkscape:cy="4.560663"
     inkscape:window-x="84"
     inkscape:window-y="-11"
     inkscape:window-maximized="1"
     inkscape:current-layer="svg20">
    <inkscape:grid
       type="xygrid"
       id="grid833" />
  </sodipodi:namedview>
  <g
     id="g6">
    <rect
       fill="none"
       height="24"
       width="24"
       id="rect2" />
    <rect
       fill="none"
       height="24"
       width="24"
       id="rect4" />
  </g>
  <g
     id="g18">
    <g
       id="g16">
      <path
         d="M 21,12.22 C 21,6.73 16.74,3 12,3 7.31,3 3,6.65 3,12.28 2.4,12.62 2,13.26 2,14 v 2 c 0,1.1 0.9,2 2,2 v 0 c 0.55,0 1,-0.45 1,-1 V 12.19 C 5,8.36 7.95,5.01 11.78,4.9 15.74,4.78 19,7.96 19,11.9 v 5.13 C 19,17.56 19.45,18 20,18 c 1.22,0 2,-1 2,-1.86 v -2.3 c 0,-0.7 -0.41,-1.31 -1,-1.62 z"
         id="path8"
         inkscape:connector-curvature="0"
         sodipodi:nodetypes="cscssccsscscccsc" />
      <circle
         cx="9"
         cy="13"
         r="1"
         id="circle10" />
      <circle
         cx="15"
         cy="13"
         r="1"
         id="circle12" />
      <path
         d="M18,11.03C17.52,8.18,15.04,6,12.05,6c-3.03,0-6.29,2.51-6.03,6.45c2.47-1.01,4.33-3.21,4.86-5.89 C12.19,9.19,14.88,11,18,11.03z"
         id="path14" />
    </g>
  </g>
</svg>
