<?xml version="1.0" encoding="UTF-8" standalone="no"?>
<!--Designed by Vexels.com - 2017 All Rights Reserved - https://vexels.com/terms-and-conditions/-->

<svg
   xmlns:dc="http://purl.org/dc/elements/1.1/"
   xmlns:cc="http://creativecommons.org/ns#"
   xmlns:rdf="http://www.w3.org/1999/02/22-rdf-syntax-ns#"
   xmlns:svg="http://www.w3.org/2000/svg"
   xmlns="http://www.w3.org/2000/svg"
   xmlns:sodipodi="http://sodipodi.sourceforge.net/DTD/sodipodi-0.dtd"
   xmlns:inkscape="http://www.inkscape.org/namespaces/inkscape"
   version="1.1"
   id="Layer_1"
   x="0px"
   y="0px"
   viewBox="0 0 1200 1200"
   enable-background="new 0 0 1200 1200"
   xml:space="preserve"
   sodipodi:docname="sound-wave-dot-by-Vexels.svg"
   inkscape:version="0.92.3 (2405546, 2018-03-11)"><metadata
   id="metadata4601"><rdf:RDF><cc:Work
       rdf:about=""><dc:format>image/svg+xml</dc:format><dc:type
         rdf:resource="http://purl.org/dc/dcmitype/StillImage" /></cc:Work></rdf:RDF></metadata><defs
   id="defs4599" /><sodipodi:namedview
   pagecolor="#ffffff"
   bordercolor="#666666"
   borderopacity="1"
   objecttolerance="10"
   gridtolerance="10"
   guidetolerance="10"
   inkscape:pageopacity="0"
   inkscape:pageshadow="2"
   inkscape:window-width="1920"
   inkscape:window-height="1051"
   id="namedview4597"
   showgrid="false"
   inkscape:zoom="2.0223254"
   inkscape:cx="424.14384"
   inkscape:cy="610.91723"
   inkscape:window-x="-9"
   inkscape:window-y="-9"
   inkscape:window-maximized="1"
   inkscape:current-layer="g4594" />
<g
   id="g4594">
	
	
	
	
	
	
	
	
	<circle
   cx="513.89697"
   cy="472.466"
   r="6.2080002"
   id="circle4174"
   style="fill:#303030" />
	<path
   d="m 583.371,578.354 c 5.653,0 10.235,-4.585 10.235,-10.238 0,-5.65 -4.582,-10.235 -10.235,-10.235 -5.653,0 -10.238,4.585 -10.238,10.235 0,5.652 4.585,10.238 10.238,10.238 z"
   id="path4176"
   inkscape:connector-curvature="0"
   style="fill:#303030" />
	<path
   d="m 618.107,578.354 c 5.653,0 10.235,-4.585 10.235,-10.238 0,-5.65 -4.582,-10.235 -10.235,-10.235 -5.653,0 -10.235,4.585 -10.235,10.235 -10e-4,5.652 4.581,10.238 10.235,10.238 z"
   id="path4178"
   inkscape:connector-curvature="0"
   style="fill:#303030" />
	<circle
   cx="479.15802"
   cy="504.35101"
   r="7.552"
   id="circle4180"
   style="fill:#303030" />
	<circle
   cx="513.89697"
   cy="440.58301"
   r="4.8660002"
   id="circle4182"
   style="fill:#303030" />
	<path
   d="m 479.158,578.354 c 5.653,0 10.235,-4.585 10.235,-10.238 0,-5.65 -4.582,-10.235 -10.235,-10.235 -5.653,0 -10.235,4.585 -10.235,10.235 0,5.652 4.582,10.238 10.235,10.238 z"
   id="path4184"
   inkscape:connector-curvature="0"
   style="fill:#303030" />
	<circle
   cx="479.15802"
   cy="536.23102"
   r="8.8940001"
   id="circle4186"
   style="fill:#303030" />
	<circle
   cx="479.15802"
   cy="472.466"
   r="6.2080002"
   id="circle4188"
   style="fill:#303030" />
	<circle
   cx="583.37097"
   cy="472.466"
   r="6.2080002"
   id="circle4190"
   style="fill:#303030" />
	<path
   d="m 513.897,545.125 c 4.911,0 8.893,-3.979 8.893,-8.893 0,-4.911 -3.982,-8.896 -8.893,-8.896 -4.914,0 -8.893,3.985 -8.893,8.896 0,4.915 3.979,8.893 8.893,8.893 z"
   id="path4192"
   inkscape:connector-curvature="0"
   style="fill:#303030" />
	<circle
   cx="548.63202"
   cy="536.23102"
   r="8.8940001"
   id="circle4194"
   style="fill:#303030" />
	<path
   d="m 513.897,412.223 c 1.946,0 3.523,-1.578 3.523,-3.524 0,-1.946 -1.578,-3.524 -3.523,-3.524 -1.949,0 -3.524,1.578 -3.524,3.524 0,1.947 1.575,3.524 3.524,3.524 z"
   id="path4196"
   inkscape:connector-curvature="0"
   style="fill:#303030" />
	
	<circle
   cx="513.89697"
   cy="504.35101"
   r="7.552"
   id="circle4200"
   style="fill:#303030" />
	<path
   d="m 583.371,545.125 c 4.911,0 8.893,-3.979 8.893,-8.893 0,-4.911 -3.982,-8.896 -8.893,-8.896 -4.914,0 -8.896,3.985 -8.896,8.896 0,4.915 3.982,8.893 8.896,8.893 z"
   id="path4202"
   inkscape:connector-curvature="0"
   style="fill:#303030" />
	<path
   d="m 513.897,578.354 c 5.653,0 10.235,-4.585 10.235,-10.238 0,-5.65 -4.582,-10.235 -10.235,-10.235 -5.653,0 -10.238,4.585 -10.238,10.235 0,5.652 4.585,10.238 10.238,10.238 z"
   id="path4204"
   inkscape:connector-curvature="0"
   style="fill:#303030" />
	<path
   d="m 548.632,578.354 c 5.653,0 10.235,-4.585 10.235,-10.238 0,-5.65 -4.582,-10.235 -10.235,-10.235 -5.653,0 -10.235,4.585 -10.235,10.235 0,5.652 4.582,10.238 10.235,10.238 z"
   id="path4206"
   inkscape:connector-curvature="0"
   style="fill:#303030" />
	<circle
   cx="583.37097"
   cy="504.35101"
   r="7.552"
   id="circle4208"
   style="fill:#303030" />
	
	
	
	
	
	
	
	
	
	
	
	
	
	
	
	
	
	
	
	
	
	
	
	
	
	
	
	
	
	
	
	
	
	<path
   d="m 409.684,556.538 c -6.396,0 -11.577,5.182 -11.577,11.577 0,6.395 5.182,11.581 11.577,11.581 6.398,0 11.581,-5.186 11.581,-11.581 0,-6.395 -5.183,-11.577 -11.581,-11.577 z"
   id="path4276"
   inkscape:connector-curvature="0"
   style="fill:#303030" />
	<circle
   cx="374.948"
   cy="504.35101"
   r="7.552"
   id="circle4278"
   style="fill:#303030" />
	<path
   fill="#303030"
   d="M96.316,578.354c5.653,0,10.235-4.585,10.235-10.238c0-5.65-4.582-10.235-10.235-10.235   c-5.653,0-10.235,4.585-10.235,10.235C86.081,573.768,90.663,578.354,96.316,578.354z"
   id="path4280" />
	<circle
   cx="340.20999"
   cy="504.35101"
   r="7.552"
   id="circle4282"
   style="fill:#303030" />
	<path
   d="m 305.474,578.354 c 5.653,0 10.239,-4.585 10.239,-10.238 0,-5.65 -4.585,-10.235 -10.239,-10.235 -5.653,0 -10.235,4.585 -10.235,10.235 0,5.652 4.582,10.238 10.235,10.238 z"
   id="path4284"
   inkscape:connector-curvature="0"
   style="fill:#303030" />
	<circle
   cx="305.474"
   cy="440.58301"
   r="4.8660002"
   id="circle4286"
   style="fill:#303030" />
	<path
   d="m 340.21,445.449 c 2.688,0 4.869,-2.178 4.869,-4.866 0,-2.688 -2.181,-4.866 -4.869,-4.866 -2.685,0 -4.866,2.178 -4.866,4.866 0,2.688 2.181,4.866 4.866,4.866 z"
   id="path4288"
   inkscape:connector-curvature="0"
   style="fill:#303030" />
	<circle
   cx="305.474"
   cy="472.466"
   r="6.2080002"
   id="circle4290"
   style="fill:#303030" />
	<circle
   cx="340.20999"
   cy="536.23102"
   r="8.8940001"
   id="circle4292"
   style="fill:#303030" />
	<path
   d="m 340.21,478.674 c 3.43,0 6.211,-2.778 6.211,-6.208 0,-3.43 -2.781,-6.208 -6.211,-6.208 -3.427,0 -6.208,2.778 -6.208,6.208 0,3.43 2.781,6.208 6.208,6.208 z"
   id="path4294"
   inkscape:connector-curvature="0"
   style="fill:#303030" />
	<path
   d="m 374.948,578.354 c 5.653,0 10.238,-4.585 10.238,-10.238 0,-5.65 -4.585,-10.235 -10.238,-10.235 -5.653,0 -10.238,4.585 -10.238,10.235 0,5.652 4.585,10.238 10.238,10.238 z"
   id="path4296"
   inkscape:connector-curvature="0"
   style="fill:#303030" />
	<circle
   cx="374.948"
   cy="472.466"
   r="6.2080002"
   id="circle4298"
   style="fill:#303030" />
	<path
   d="m 374.948,545.125 c 4.911,0 8.893,-3.979 8.893,-8.893 0,-4.911 -3.982,-8.896 -8.893,-8.896 -4.914,0 -8.893,3.985 -8.893,8.896 10e-4,4.915 3.979,8.893 8.893,8.893 z"
   id="path4300"
   inkscape:connector-curvature="0"
   style="fill:#303030" />
	<circle
   cx="409.68399"
   cy="536.23102"
   r="8.8940001"
   id="circle4302"
   style="fill:#303030" />
	<path
   d="m 305.474,545.125 c 4.911,0 8.893,-3.979 8.893,-8.893 0,-4.911 -3.982,-8.896 -8.893,-8.896 -4.914,0 -8.893,3.985 -8.893,8.896 0,4.915 3.979,8.893 8.893,8.893 z"
   id="path4304"
   inkscape:connector-curvature="0"
   style="fill:#303030" />
	<path
   d="m 305.474,511.903 c 4.172,0 7.554,-3.382 7.554,-7.554 0,-4.172 -3.382,-7.55 -7.554,-7.55 -4.169,0 -7.55,3.378 -7.55,7.55 0,4.172 3.381,7.554 7.55,7.554 z"
   id="path4306"
   inkscape:connector-curvature="0"
   style="fill:#303030" />
	<path
   d="m 374.948,445.449 c 2.688,0 4.866,-2.178 4.866,-4.866 0,-0.177 -0.032,-0.342 -0.052,-0.513 -0.203,-0.642 -0.41,-1.281 -0.62,-1.913 -0.842,-1.452 -2.394,-2.439 -4.195,-2.439 -2.688,0 -4.866,2.178 -4.866,4.866 0.002,2.687 2.18,4.865 4.867,4.865 z"
   id="path4308"
   inkscape:connector-curvature="0"
   style="fill:#303030" />
	<path
   d="m 340.21,412.223 c 1.949,0 3.527,-1.578 3.527,-3.524 0,-1.946 -1.578,-3.524 -3.527,-3.524 -1.942,0 -3.524,1.578 -3.524,3.524 0,1.947 1.581,3.524 3.524,3.524 z"
   id="path4310"
   inkscape:connector-curvature="0"
   style="fill:#303030" />
	<path
   fill="#303030"
   d="M131.055,578.354c5.653,0,10.235-4.585,10.235-10.238c0-5.65-4.582-10.235-10.235-10.235   c-5.656,0-10.238,4.585-10.238,10.235C120.817,573.768,125.399,578.354,131.055,578.354z"
   id="path4312" />
	<path
   fill="#303030"
   d="M131.055,545.125c4.911,0,8.893-3.979,8.893-8.893c0-4.911-3.982-8.896-8.893-8.896   c-4.914,0-8.896,3.985-8.896,8.896C122.159,541.147,126.141,545.125,131.055,545.125z"
   id="path4314" />
	<path
   d="m 340.21,578.354 c 5.656,0 10.238,-4.585 10.238,-10.238 0,-5.65 -4.582,-10.235 -10.238,-10.235 -5.65,0 -10.232,4.585 -10.232,10.235 0,5.652 4.582,10.238 10.232,10.238 z"
   id="path4316"
   inkscape:connector-curvature="0"
   style="fill:#303030" />
	<path
   fill="#303030"
   d="M165.79,578.354c5.653,0,10.235-4.585,10.235-10.238c0-5.65-4.582-10.235-10.235-10.235   s-10.235,4.585-10.235,10.235C155.555,573.768,160.137,578.354,165.79,578.354z"
   id="path4318" />
	<path
   fill="#303030"
   d="M200.526,578.354c5.653,0,10.238-4.585,10.238-10.238c0-5.65-4.585-10.235-10.238-10.235   c-5.653,0-10.235,4.585-10.235,10.235C190.291,573.768,194.873,578.354,200.526,578.354z"
   id="path4320" />
	<path
   fill="#303030"
   d="M235.265,578.354c5.653,0,10.235-4.585,10.235-10.238c0-5.65-4.582-10.235-10.235-10.235   c-5.653,0-10.235,4.585-10.235,10.235C225.03,573.768,229.611,578.354,235.265,578.354z"
   id="path4322" />
	<path
   fill="#303030"
   d="M270,578.354c5.653,0,10.238-4.585,10.238-10.238c0-5.65-4.585-10.235-10.238-10.235   c-5.653,0-10.235,4.585-10.235,10.235C259.765,573.768,264.347,578.354,270,578.354z"
   id="path4324" />
	<circle
   fill="#303030"
   cx="270"
   cy="536.231"
   r="8.894"
   id="circle4326" />
	<circle
   fill="#303030"
   cx="200.526"
   cy="536.231"
   r="8.894"
   id="circle4328" />
	<circle
   fill="#303030"
   cx="165.79"
   cy="536.231"
   r="8.894"
   id="circle4330" />
	
	
	
	<circle
   fill="#303030"
   cx="165.79"
   cy="472.466"
   r="6.208"
   id="circle4338" />
	<circle
   fill="#303030"
   cx="165.79"
   cy="504.351"
   r="7.552"
   id="circle4340" />
	
	
	
	
	
	
	
	
	
	<circle
   cx="513.89697"
   cy="727.534"
   r="6.2080002"
   id="circle4360"
   style="fill:#303030" />
	<circle
   cx="583.37097"
   cy="631.883"
   r="10.237"
   id="circle4362"
   style="fill:#303030" />
	<circle
   cx="618.10699"
   cy="631.883"
   r="10.237"
   id="circle4364"
   style="fill:#303030" />
	<circle
   cx="479.15802"
   cy="695.64899"
   r="7.552"
   id="circle4366"
   style="fill:#303030" />
	<circle
   cx="513.89697"
   cy="759.41498"
   r="4.868"
   id="circle4368"
   style="fill:#303030" />
	<circle
   cx="479.15802"
   cy="631.883"
   r="10.237"
   id="circle4370"
   style="fill:#303030" />
	<path
   d="m 479.158,654.872 c -4.911,0 -8.893,3.982 -8.893,8.893 0,4.914 3.982,8.896 8.893,8.896 4.915,0 8.896,-3.982 8.896,-8.896 0,-4.912 -3.981,-8.893 -8.896,-8.893 z"
   id="path4372"
   inkscape:connector-curvature="0"
   style="fill:#303030" />
	<circle
   cx="479.15802"
   cy="727.534"
   r="6.2080002"
   id="circle4374"
   style="fill:#303030" />
	<circle
   cx="583.37097"
   cy="727.534"
   r="6.2080002"
   id="circle4376"
   style="fill:#303030" />
	<path
   d="m 513.897,654.872 c -4.914,0 -8.893,3.982 -8.893,8.893 0,4.914 3.979,8.896 8.893,8.896 4.911,0 8.893,-3.982 8.893,-8.896 0,-4.912 -3.982,-8.893 -8.893,-8.893 z"
   id="path4378"
   inkscape:connector-curvature="0"
   style="fill:#303030" />
	<circle
   cx="548.63202"
   cy="663.76599"
   r="8.8940001"
   id="circle4380"
   style="fill:#303030" />
	<path
   d="m 513.897,787.776 c -1.949,0 -3.524,1.575 -3.524,3.524 0,1.945 1.575,3.524 3.524,3.524 1.946,0 3.523,-1.578 3.523,-3.524 0,-1.949 -1.577,-3.524 -3.523,-3.524 z"
   id="path4382"
   inkscape:connector-curvature="0"
   style="fill:#303030" />
	
	<circle
   cx="513.89697"
   cy="695.64899"
   r="7.552"
   id="circle4386"
   style="fill:#303030" />
	<circle
   cx="583.37097"
   cy="663.76599"
   r="8.8940001"
   id="circle4388"
   style="fill:#303030" />
	<circle
   cx="513.89697"
   cy="631.883"
   r="10.237"
   id="circle4390"
   style="fill:#303030" />
	<circle
   cx="548.63202"
   cy="631.883"
   r="10.237"
   id="circle4392"
   style="fill:#303030" />
	<path
   d="m 583.371,688.097 c -4.172,0 -7.554,3.381 -7.554,7.554 0,4.169 3.381,7.551 7.554,7.551 4.169,0 7.55,-3.382 7.55,-7.551 0,-4.172 -3.381,-7.554 -7.55,-7.554 z"
   id="path4394"
   inkscape:connector-curvature="0"
   style="fill:#303030" />
	
	
	
	
	
	
	
	
	
	
	
	
	
	
	
	
	
	
	
	
	
	
	
	
	
	
	
	
	
	
	
	
	
	<circle
   fill="#303030"
   cx="270"
   cy="600"
   r="11.579"
   id="circle4462" />
	<path
   d="m 409.684,588.421 c -6.396,0 -11.577,5.182 -11.577,11.577 0,6.395 5.182,11.581 11.577,11.581 6.398,0 11.581,-5.186 11.581,-11.581 0,-6.395 -5.183,-11.577 -11.581,-11.577 z"
   id="path4464"
   inkscape:connector-curvature="0"
   style="fill:#303030" />
	<path
   d="m 409.684,620.304 c -6.396,0 -11.577,5.185 -11.577,11.577 0,6.396 5.182,11.581 11.577,11.581 6.398,0 11.581,-5.185 11.581,-11.581 0,-6.392 -5.183,-11.577 -11.581,-11.577 z"
   id="path4466"
   inkscape:connector-curvature="0"
   style="fill:#303030" />
	<circle
   cx="374.948"
   cy="695.64899"
   r="7.552"
   id="circle4468"
   style="fill:#303030" />
	<path
   d="m 340.21,588.421 c -6.392,0 -11.577,5.182 -11.577,11.577 0,6.395 5.185,11.581 11.577,11.581 6.399,0 11.581,-5.186 11.581,-11.581 -10e-4,-6.395 -5.183,-11.577 -11.581,-11.577 z"
   id="path4470"
   inkscape:connector-curvature="0"
   style="fill:#303030" />
	<circle
   cx="305.474"
   cy="600"
   r="11.579"
   id="circle4472"
   style="fill:#303030" />
	<path
   d="m 444.423,588.421 c -6.396,0 -11.581,5.182 -11.581,11.577 0,6.395 5.185,11.581 11.581,11.581 6.392,0 11.577,-5.186 11.577,-11.581 0,-6.395 -5.185,-11.577 -11.577,-11.577 z"
   id="path4474"
   inkscape:connector-curvature="0"
   style="fill:#303030" />
	
	<circle
   cx="548.63202"
   cy="600"
   r="11.579"
   id="circle4478"
   style="fill:#303030" />
	<circle
   cx="479.15802"
   cy="600"
   r="11.579"
   id="circle4480"
   style="fill:#303030" />
	<path
   d="m 513.897,588.421 c -6.395,0 -11.581,5.182 -11.581,11.577 0,6.395 5.186,11.581 11.581,11.581 6.392,0 11.577,-5.186 11.577,-11.581 0,-6.395 -5.185,-11.577 -11.577,-11.577 z"
   id="path4482"
   inkscape:connector-curvature="0"
   style="fill:#303030" />
	<circle
   fill="#303030"
   cx="61.581"
   cy="600"
   r="11.579"
   id="circle4484" />
	<circle
   fill="#303030"
   cx="96.316"
   cy="631.883"
   r="10.237"
   id="circle4486" />
	<circle
   fill="#303030"
   cx="96.316"
   cy="600"
   r="11.579"
   id="circle4488" />
	<path
   fill="#303030"
   d="M131.055,588.421c-6.396,0-11.581,5.182-11.581,11.577c0,6.395,5.185,11.581,11.581,11.581   c6.392,0,11.577-5.186,11.577-11.581C142.632,593.603,137.447,588.421,131.055,588.421z"
   id="path4490" />
	<circle
   fill="#303030"
   cx="200.526"
   cy="600"
   r="11.579"
   id="circle4492" />
	<circle
   fill="#303030"
   cx="165.79"
   cy="600"
   r="11.579"
   id="circle4494" />
	<circle
   fill="#303030"
   cx="235.265"
   cy="600"
   r="11.579"
   id="circle4496" />
	
	
	
	
	
	<path
   d="m 583.371,588.421 c -6.395,0 -11.581,5.182 -11.581,11.577 0,6.395 5.185,11.581 11.581,11.581 6.392,0 11.577,-5.186 11.577,-11.581 0,-6.395 -5.185,-11.577 -11.577,-11.577 z"
   id="path4508"
   inkscape:connector-curvature="0"
   style="fill:#303030" />
	
	
	
	
	
	<circle
   cx="618.10699"
   cy="600"
   r="11.579"
   id="circle4520"
   style="fill:#303030" />
	<path
   d="m 652.845,588.421 c -6.396,0 -11.581,5.182 -11.581,11.577 0,6.395 5.185,11.581 11.581,11.581 6.392,0 11.577,-5.186 11.577,-11.581 10e-4,-6.395 -5.185,-11.577 -11.577,-11.577 z"
   id="path4522"
   inkscape:connector-curvature="0"
   style="fill:#303030" />
	
	
	
	<circle
   cx="374.948"
   cy="600"
   r="11.579"
   id="circle4530"
   style="fill:#303030" />
	<circle
   cx="340.20999"
   cy="695.64899"
   r="7.552"
   id="circle4532"
   style="fill:#303030" />
	<circle
   cx="305.474"
   cy="631.883"
   r="10.237"
   id="circle4534"
   style="fill:#303030" />
	<circle
   cx="305.474"
   cy="759.41498"
   r="4.868"
   id="circle4536"
   style="fill:#303030" />
	<circle
   cx="340.20999"
   cy="759.41498"
   r="4.868"
   id="circle4538"
   style="fill:#303030" />
	<circle
   cx="305.474"
   cy="727.534"
   r="6.2080002"
   id="circle4540"
   style="fill:#303030" />
	<path
   d="m 340.21,654.872 c -4.911,0 -8.893,3.982 -8.893,8.893 0,4.914 3.982,8.896 8.893,8.896 4.914,0 8.896,-3.982 8.896,-8.896 0,-4.912 -3.982,-8.893 -8.896,-8.893 z"
   id="path4542"
   inkscape:connector-curvature="0"
   style="fill:#303030" />
	<circle
   cx="340.20999"
   cy="727.534"
   r="6.2080002"
   id="circle4544"
   style="fill:#303030" />
	<circle
   cx="374.948"
   cy="631.883"
   r="10.237"
   id="circle4546"
   style="fill:#303030" />
	<circle
   cx="374.948"
   cy="727.534"
   r="6.2080002"
   id="circle4548"
   style="fill:#303030" />
	<path
   d="m 374.948,654.872 c -4.914,0 -8.893,3.982 -8.893,8.893 0,4.914 3.979,8.896 8.893,8.896 4.911,0 8.893,-3.982 8.893,-8.896 0,-4.912 -3.982,-8.893 -8.893,-8.893 z"
   id="path4550"
   inkscape:connector-curvature="0"
   style="fill:#303030" />
	<circle
   cx="409.68399"
   cy="663.76599"
   r="8.8940001"
   id="circle4552"
   style="fill:#303030" />
	<path
   d="m 305.474,654.872 c -4.914,0 -8.893,3.982 -8.893,8.893 0,4.914 3.979,8.896 8.893,8.896 4.911,0 8.893,-3.982 8.893,-8.896 0,-4.912 -3.982,-8.893 -8.893,-8.893 z"
   id="path4554"
   inkscape:connector-curvature="0"
   style="fill:#303030" />
	<circle
   cx="305.474"
   cy="695.64899"
   r="7.552"
   id="circle4556"
   style="fill:#303030" />
	<path
   d="m 374.948,754.548 c -2.688,0 -4.866,2.181 -4.866,4.869 0,2.688 2.178,4.866 4.866,4.866 1.801,0 3.353,-0.987 4.195,-2.439 0.21,-0.636 0.416,-1.271 0.62,-1.913 0.019,-0.174 0.052,-0.339 0.052,-0.513 -10e-4,-2.689 -2.179,-4.87 -4.867,-4.87 z"
   id="path4558"
   inkscape:connector-curvature="0"
   style="fill:#303030" />
	<path
   d="m 340.21,787.776 c -1.942,0 -3.524,1.575 -3.524,3.524 0,1.945 1.581,3.524 3.524,3.524 1.949,0 3.527,-1.578 3.527,-3.524 0,-1.949 -1.578,-3.524 -3.527,-3.524 z"
   id="path4560"
   inkscape:connector-curvature="0"
   style="fill:#303030" />
	<circle
   fill="#303030"
   cx="131.055"
   cy="631.883"
   r="10.237"
   id="circle4562" />
	<circle
   fill="#303030"
   cx="131.055"
   cy="663.766"
   r="8.894"
   id="circle4564" />
	<path
   d="m 340.21,621.646 c -5.65,0 -10.232,4.582 -10.232,10.235 0,5.653 4.582,10.238 10.232,10.238 5.656,0 10.238,-4.585 10.238,-10.238 0,-5.653 -4.582,-10.235 -10.238,-10.235 z"
   id="path4566"
   inkscape:connector-curvature="0"
   style="fill:#303030" />
	<circle
   fill="#303030"
   cx="165.79"
   cy="631.883"
   r="10.237"
   id="circle4568" />
	<circle
   fill="#303030"
   cx="200.526"
   cy="631.883"
   r="10.237"
   id="circle4570" />
	<circle
   fill="#303030"
   cx="235.265"
   cy="631.883"
   r="10.237"
   id="circle4572" />
	<circle
   fill="#303030"
   cx="270"
   cy="631.883"
   r="10.237"
   id="circle4574" />
	<circle
   fill="#303030"
   cx="270"
   cy="663.766"
   r="8.894"
   id="circle4576" />
	<circle
   fill="#303030"
   cx="200.526"
   cy="663.766"
   r="8.894"
   id="circle4578" />
	<circle
   fill="#303030"
   cx="165.79"
   cy="663.766"
   r="8.894"
   id="circle4580" />
	
	
	
	<circle
   fill="#303030"
   cx="165.79"
   cy="727.534"
   r="6.208"
   id="circle4588" />
	<circle
   fill="#303030"
   cx="165.79"
   cy="695.649"
   r="7.552"
   id="circle4590" />
	
</g>
</svg>