<?xml version="1.0" encoding="UTF-8" standalone="no"?>
<svg
   width="320"
   height="180"
   viewBox="0 0 320 180"
   fill="none"
   version="1.1"
   id="svg13"
   sodipodi:docname="ic_banner.svg"
   inkscape:version="1.4 (86a8ad7, 2024-10-11)"
   xml:space="preserve"
   xmlns:inkscape="http://www.inkscape.org/namespaces/inkscape"
   xmlns:sodipodi="http://sodipodi.sourceforge.net/DTD/sodipodi-0.dtd"
   xmlns="http://www.w3.org/2000/svg"
   xmlns:svg="http://www.w3.org/2000/svg"><sodipodi:namedview
     id="namedview13"
     pagecolor="#ffffff"
     bordercolor="#eeeeee"
     borderopacity="1"
     inkscape:showpageshadow="0"
     inkscape:pageopacity="0"
     inkscape:pagecheckerboard="0"
     inkscape:deskcolor="#d1d1d1"
     inkscape:zoom="1.9671875"
     inkscape:cx="123.78078"
     inkscape:cy="75.742654"
     inkscape:window-width="2560"
     inkscape:window-height="1476"
     inkscape:window-x="-12"
     inkscape:window-y="-12"
     inkscape:window-maximized="1"
     inkscape:current-layer="svg13" /><defs
     id="defs13"><radialGradient
       id="paint0_radial_6_10374"
       cx="0"
       cy="0"
       r="1"
       gradientUnits="userSpaceOnUse"
       gradientTransform="translate(42.7245 71.5788) rotate(49.4258) scale(45.0733)"><stop
         stop-color="#376A80"
         id="stop12" /><stop
         offset="1"
         stop-color="#013145"
         id="stop13" /></radialGradient></defs><rect
     style="opacity:0.707;fill:none;stroke:#4f330c;stroke-width:1.04247;stroke-linecap:round;stroke-dasharray:none"
     id="rect3"
     width="266.95752"
     height="126.95753"
     x="26.521236"
     y="26.521236" /><path
     style="fill:#000000;fill-opacity:1;stroke:none;stroke-width:1.18156"
     d="m 104,80.070809 c 0,0 2.57947,2.67809 5.8547,2.894091 0,0 -1.12052,1.294577 -5.15074,1.841403 5.71612,1.426628 11.31396,9.915112 15.85281,15.951317 6.31181,8.39406 23.19444,20.71119 41.41694,22.32788 19.05372,1.69042 50.12542,-7.16674 50.02606,-25.553613 -0.0994,-18.386878 -26.61682,-14.148951 -26.61682,-26.982978 0,-12.834028 21.39117,-17.208023 26.58941,-4.637767 -2.67993,-25.426828 -34.16282,-14.362955 -34.06499,4.694777 0.0978,19.05772 26.54109,13.572207 26.54109,27.014857 0,13.442644 -26.57475,19.265264 -42.83693,18.407944 -16.26218,-0.85732 -36.3214,-15.56435 -44.16262,-33.689563 4.81517,-9.653503 9.47551,-14.181609 16.97411,-20.622106 18.49654,-15.886601 22.05612,-5.773116 26.68751,-5.206629 6.63701,0.811779 10.08409,-0.109885 15.34985,-5.517486 -6.5344,1.779407 -9.31101,1.842065 -13.46421,0.0047 7.25721,-0.636648 10.8771,-3.480274 12.18286,-11.472881 -14.43725,13.706598 -13.18924,-0.50175 -27.9313,5.18731 -20.76155,8.012032 -33.86683,29.770788 -35.93533,34.07233 -0.71218,1.481027 -3.63301,2.372455 -7.3124,1.287015 z"
     id="path826-7"
     inkscape:connector-curvature="0"
     sodipodi:nodetypes="cccsszzczzscsscccsscc" /><path
     style="color:#000000;fill:#000000;-inkscape-stroke:none;stroke:none"
     d="m 154.23437,34.345703 c -2.89729,0 -5.30523,1.720664 -7.05859,3.902344 -1.75336,2.18168 -3.10702,4.988545 -4.24023,8.322265 -2.26644,6.667441 -3.58008,15.489438 -3.58008,25.234375 0,9.744938 1.31364,18.566935 3.58008,25.234375 1.13321,3.333718 2.48687,6.140588 4.24023,8.322268 1.75336,2.18168 4.1613,3.90234 7.05859,3.90234 2.8973,0 5.30719,-1.72066 7.06055,-3.90234 1.75336,-2.18168 3.10507,-4.98855 4.23828,-8.322268 2.26644,-6.66744 3.58008,-15.489437 3.58008,-25.234375 0,-9.744937 -1.31364,-18.566934 -3.58008,-25.234375 -1.13321,-3.33372 -2.48492,-6.140585 -4.23828,-8.322265 -1.75336,-2.18168 -4.16325,-3.902344 -7.06055,-3.902344 z m 0,6.5 c 0.31379,0 0.96511,0.194202 1.99415,1.474609 1.02903,1.280408 2.18124,3.484998 3.15234,6.341797 1.9422,5.713599 3.23242,13.994688 3.23242,23.142578 0,9.147891 -1.29022,17.42898 -3.23242,23.142579 -0.9711,2.856799 -2.12331,5.061394 -3.15234,6.341794 -1.02904,1.28041 -1.68036,1.47461 -1.99415,1.47461 -0.31378,0 -0.96315,-0.1942 -1.99218,-1.47461 -1.02903,-1.2804 -2.18125,-3.484995 -3.15235,-6.341794 -1.9422,-5.713599 -3.23437,-13.994688 -3.23437,-23.142579 0,-9.14789 1.29217,-17.428979 3.23437,-23.142578 0.9711,-2.856799 2.12332,-5.061389 3.15235,-6.341797 1.02903,-1.280407 1.6784,-1.474609 1.99218,-1.474609 z"
     id="path832-3"
     transform="matrix(0.99813779,0.06099961,-0.03254954,0.99947012,0,0)" /><path
     sodipodi:nodetypes="cssc"
     inkscape:connector-curvature="0"
     id="path831-2"
     d="m 104.3713,70.584462 c 11.97279,-25.41448 24.66642,-34.861198 50.46542,-38.365222 4.49398,-0.610371 4.20252,-6.514109 -1.03835,-6.207718 -25.13957,1.469695 -46.89977,18.361922 -49.42707,44.57294 z"
     style="fill:#000000;fill-opacity:1;stroke:none;stroke-width:1.18156" /><path
     style="fill:#000000;fill-opacity:1;stroke:none;stroke-width:6.28823;stroke-miterlimit:4;stroke-dasharray:none"
     d="m 159.31153,64.967406 a 7.3133675,16.542251 2.3652033 0 0 -4.40979,2.952401 3.2467501,5.4929384 0 0 1 1.89447,4.988832 3.2467501,5.4929384 0 0 1 -3.24674,5.493511 3.2467501,5.4929384 0 0 1 -1.88172,-1.022664 7.3133675,16.542251 2.3652033 0 0 -0.36145,3.772747 7.3133675,16.542251 2.3652033 0 0 6.60405,16.871821 7.3133675,16.542251 2.3652033 0 0 8.00734,-16.184839 7.3133675,16.542251 2.3652033 0 0 -6.60616,-16.871809 z"
     id="ellipse827-4"
     inkscape:connector-curvature="0" /><path
     style="font-weight:bold;font-size:32px;font-family:Comfortaa;-inkscape-font-specification:'Comfortaa Bold';fill:#000000"
     d="m 277.95226,141.64281 q 0,-1.92 0.928,-3.424 0.96,-1.536 2.56,-2.432 1.6,-0.896 3.52,-0.896 1.92,0 2.848,0.64 0.96,0.608 0.736,1.472 -0.096,0.448 -0.384,0.704 -0.256,0.224 -0.608,0.288 -0.352,0.064 -0.768,-0.032 -2.048,-0.416 -3.68,-0.064 -1.632,0.352 -2.592,1.312 -0.928,0.96 -0.928,2.432 z m 0.032,10.944 q -0.768,0 -1.184,-0.384 -0.416,-0.416 -0.416,-1.216 v -14.304 q 0,-0.768 0.416,-1.184 0.416,-0.416 1.184,-0.416 0.8,0 1.184,0.416 0.416,0.384 0.416,1.184 v 14.304 q 0,0.768 -0.416,1.184 -0.384,0.416 -1.184,0.416 z"
     id="path49" /><path
     style="font-weight:bold;font-size:32px;font-family:Comfortaa;-inkscape-font-specification:'Comfortaa Bold';fill:#000000"
     d="m 264.73626,152.71481 q -2.656,0 -4.736,-1.12 -2.048,-1.152 -3.232,-3.136 -1.152,-2.016 -1.152,-4.608 0,-2.624 1.088,-4.608 1.12,-2.016 3.072,-3.136 1.952,-1.152 4.48,-1.152 2.496,0 4.288,1.12 1.792,1.088 2.72,3.04 0.96,1.92 0.96,4.448 0,0.608 -0.416,1.024 -0.416,0.384 -1.056,0.384 h -12.896 v -2.56 h 12.8 l -1.312,0.896 q -0.032,-1.6 -0.64,-2.848 -0.608,-1.28 -1.728,-2.016 -1.12,-0.736 -2.72,-0.736 -1.824,0 -3.136,0.8 -1.28,0.8 -1.952,2.208 -0.672,1.376 -0.672,3.136 0,1.76 0.8,3.136 0.8,1.376 2.208,2.176 1.408,0.8 3.232,0.8 0.992,0 2.016,-0.352 1.056,-0.384 1.696,-0.864 0.48,-0.352 1.024,-0.352 0.576,-0.032 0.992,0.32 0.544,0.48 0.576,1.056 0.032,0.576 -0.512,0.992 -1.088,0.864 -2.72,1.408 -1.6,0.544 -3.072,0.544 z"
     id="path48" /><path
     style="font-weight:bold;font-size:32px;font-family:Comfortaa;-inkscape-font-specification:'Comfortaa Bold';fill:#000000"
     d="m 252.0323,152.58681 q -1.408,0 -2.496,-0.768 -1.088,-0.768 -1.696,-2.08 -0.608,-1.344 -0.608,-3.072 v -17.472 q 0,-0.704 0.448,-1.152 0.448,-0.448 1.152,-0.448 0.704,0 1.152,0.448 0.448,0.448 0.448,1.152 v 17.472 q 0,1.184 0.448,1.952 0.448,0.768 1.152,0.768 h 0.8 q 0.64,0 1.024,0.448 0.416,0.448 0.416,1.152 0,0.704 -0.608,1.152 -0.608,0.448 -1.568,0.448 z"
     id="path47" /><path
     style="font-weight:bold;font-size:32px;font-family:Comfortaa;-inkscape-font-specification:'Comfortaa Bold';fill:#000000"
     d="m 234.17633,152.71481 q -2.496,0 -4.48,-1.152 -1.984,-1.184 -3.136,-3.2 -1.152,-2.016 -1.184,-4.544 v -14.592 q 0,-0.736 0.448,-1.184 0.48,-0.448 1.184,-0.448 0.736,0 1.184,0.448 0.448,0.448 0.448,1.184 v 8.64 q 1.12,-1.344 2.688,-2.112 1.6,-0.8 3.488,-0.8 2.336,0 4.192,1.184 1.856,1.152 2.912,3.168 1.088,1.984 1.088,4.512 0,2.528 -1.184,4.544 -1.152,2.016 -3.136,3.2 -1.984,1.152 -4.512,1.152 z m 0,-2.88 q 1.632,0 2.912,-0.768 1.28,-0.8 2.016,-2.176 0.768,-1.376 0.768,-3.072 0,-1.728 -0.768,-3.072 -0.736,-1.344 -2.016,-2.112 -1.28,-0.8 -2.912,-0.8 -1.6,0 -2.912,0.8 -1.28,0.768 -2.016,2.112 -0.736,1.344 -0.736,3.072 0,1.696 0.736,3.072 0.736,1.376 2.016,2.176 1.312,0.768 2.912,0.768 z"
     id="path46" /><path
     style="font-weight:bold;font-size:32px;font-family:Comfortaa;-inkscape-font-specification:'Comfortaa Bold';fill:#000000"
     d="m 211.68036,152.71481 q -2.496,0 -4.48,-1.152 -1.984,-1.184 -3.136,-3.2 -1.152,-2.016 -1.184,-4.544 v -14.592 q 0,-0.736 0.448,-1.184 0.48,-0.448 1.184,-0.448 0.736,0 1.184,0.448 0.448,0.448 0.448,1.184 v 8.64 q 1.12,-1.344 2.688,-2.112 1.6,-0.8 3.488,-0.8 2.336,0 4.192,1.184 1.856,1.152 2.912,3.168 1.088,1.984 1.088,4.512 0,2.528 -1.184,4.544 -1.152,2.016 -3.136,3.2 -1.984,1.152 -4.512,1.152 z m 0,-2.88 q 1.632,0 2.912,-0.768 1.28,-0.8 2.016,-2.176 0.768,-1.376 0.768,-3.072 0,-1.728 -0.768,-3.072 -0.736,-1.344 -2.016,-2.112 -1.28,-0.8 -2.912,-0.8 -1.6,0 -2.912,0.8 -1.28,0.768 -2.016,2.112 -0.736,1.344 -0.736,3.072 0,1.696 0.736,3.072 0.736,1.376 2.016,2.176 1.312,0.768 2.912,0.768 z"
     id="path45" /><path
     style="font-weight:bold;font-size:32px;font-family:Comfortaa;-inkscape-font-specification:'Comfortaa Bold';fill:#000000"
     d="m 189.21638,152.71481 q -2.592,0 -4.576,-1.12 -1.984,-1.152 -3.136,-3.136 -1.12,-2.016 -1.12,-4.608 0,-2.624 1.12,-4.608 1.152,-2.016 3.136,-3.136 1.984,-1.152 4.576,-1.152 2.56,0 4.544,1.152 1.984,1.12 3.104,3.136 1.152,1.984 1.152,4.608 0,2.592 -1.12,4.608 -1.12,1.984 -3.104,3.136 -1.984,1.12 -4.576,1.12 z m 0,-2.88 q 1.664,0 2.944,-0.768 1.28,-0.768 1.984,-2.112 0.736,-1.344 0.736,-3.104 0,-1.76 -0.736,-3.104 -0.704,-1.376 -1.984,-2.144 -1.28,-0.768 -2.944,-0.768 -1.664,0 -2.944,0.768 -1.28,0.768 -2.016,2.144 -0.736,1.344 -0.736,3.104 0,1.76 0.736,3.104 0.736,1.344 2.016,2.112 1.28,0.768 2.944,0.768 z"
     id="path44" /><path
     style="font-weight:bold;font-size:32px;font-family:Comfortaa;-inkscape-font-specification:'Comfortaa Bold';fill:#000000"
     d="m 168.57641,141.64281 q 0,-1.92 0.928,-3.424 0.96,-1.536 2.56,-2.432 1.6,-0.896 3.52,-0.896 1.92,0 2.848,0.64 0.96,0.608 0.736,1.472 -0.096,0.448 -0.384,0.704 -0.256,0.224 -0.608,0.288 -0.352,0.064 -0.768,-0.032 -2.048,-0.416 -3.68,-0.064 -1.632,0.352 -2.592,1.312 -0.928,0.96 -0.928,2.432 z m 0.032,10.944 q -0.768,0 -1.184,-0.384 -0.416,-0.416 -0.416,-1.216 v -14.304 q 0,-0.768 0.416,-1.184 0.416,-0.416 1.184,-0.416 0.8,0 1.184,0.416 0.416,0.384 0.416,1.184 v 14.304 q 0,0.768 -0.416,1.184 -0.384,0.416 -1.184,0.416 z"
     id="path43" /><path
     style="font-weight:bold;font-size:32px;font-family:Comfortaa;-inkscape-font-specification:'Comfortaa Bold';fill:#000000"
     d="m 155.71242,152.71481 q -2.56,0 -4.576,-1.152 -1.984,-1.184 -3.136,-3.168 -1.12,-2.016 -1.12,-4.544 0,-2.592 1.12,-4.608 1.12,-2.016 3.072,-3.136 1.952,-1.152 4.48,-1.152 1.888,0 3.456,0.736 1.568,0.704 2.816,2.144 0.448,0.512 0.32,1.056 -0.128,0.544 -0.704,0.96 -0.448,0.32 -0.992,0.224 -0.544,-0.128 -0.992,-0.576 -1.568,-1.664 -3.904,-1.664 -1.632,0 -2.88,0.768 -1.248,0.736 -1.952,2.08 -0.704,1.344 -0.704,3.168 0,1.728 0.704,3.072 0.736,1.344 2.016,2.144 1.28,0.768 2.976,0.768 1.12,0 1.952,-0.256 0.864,-0.288 1.568,-0.864 0.512,-0.416 1.056,-0.448 0.544,-0.064 0.96,0.288 0.544,0.448 0.608,1.024 0.064,0.544 -0.384,0.992 -2.304,2.144 -5.76,2.144 z"
     id="path42" /><path
     style="font-weight:bold;font-size:32px;font-family:Comfortaa;-inkscape-font-specification:'Comfortaa Bold';fill:#000000"
     d="m 134.01642,152.90681 q -2.048,0 -3.904,-0.64 -1.856,-0.64 -3.232,-1.792 -1.376,-1.152 -2.016,-2.656 -0.32,-0.672 0,-1.248 0.352,-0.576 1.152,-0.736 0.576,-0.128 1.12,0.192 0.576,0.288 0.864,0.896 0.384,0.8 1.248,1.472 0.896,0.672 2.144,1.088 1.248,0.416 2.624,0.416 1.536,0 2.816,-0.48 1.312,-0.48 2.112,-1.376 0.8,-0.928 0.8,-2.272 0,-1.696 -1.344,-3.04 -1.312,-1.344 -4.352,-1.664 -3.968,-0.384 -6.24,-2.336 -2.272,-1.952 -2.272,-4.832 0,-2.112 1.184,-3.584 1.184,-1.472 3.2,-2.24 2.048,-0.768 4.544,-0.768 1.952,0 3.392,0.544 1.472,0.544 2.56,1.504 1.088,0.96 1.888,2.272 0.448,0.704 0.352,1.344 -0.064,0.608 -0.608,0.96 -0.608,0.384 -1.312,0.16 -0.704,-0.224 -1.056,-0.832 -0.512,-0.928 -1.248,-1.568 -0.736,-0.64 -1.728,-0.992 -0.992,-0.384 -2.336,-0.384 -2.368,-0.032 -3.968,0.896 -1.6,0.896 -1.6,2.784 0,0.96 0.48,1.856 0.512,0.864 1.824,1.504 1.344,0.64 3.84,0.896 3.808,0.384 5.92,2.336 2.144,1.92 2.144,5.088 0,1.824 -0.768,3.168 -0.736,1.344 -2.016,2.272 -1.248,0.896 -2.88,1.344 -1.6,0.448 -3.328,0.448 z"
     id="path41" /><path
     style="font-weight:bold;font-size:32px;font-family:Comfortaa;-inkscape-font-specification:'Comfortaa Bold';fill:#000000"
     d="m 102.72047,152.71481 q -2.592,0 -4.575998,-1.12 -1.984,-1.152 -3.136,-3.136 -1.12,-2.016 -1.12,-4.608 0,-2.624 1.12,-4.608 1.152,-2.016 3.136,-3.136 1.983998,-1.152 4.575998,-1.152 2.56,0 4.544,1.152 1.984,1.12 3.104,3.136 1.152,1.984 1.152,4.608 0,2.592 -1.12,4.608 -1.12,1.984 -3.104,3.136 -1.984,1.12 -4.576,1.12 z m 0,-2.88 q 1.664,0 2.944,-0.768 1.28,-0.768 1.984,-2.112 0.736,-1.344 0.736,-3.104 0,-1.76 -0.736,-3.104 -0.704,-1.376 -1.984,-2.144 -1.28,-0.768 -2.944,-0.768 -1.664,0 -2.943998,0.768 -1.28,0.768 -2.016,2.144 -0.736,1.344 -0.736,3.104 0,1.76 0.736,3.104 0.736,1.344 2.016,2.112 1.279998,0.768 2.943998,0.768 z"
     id="path40" /><path
     style="font-weight:bold;font-size:32px;font-family:Comfortaa;-inkscape-font-specification:'Comfortaa Bold';fill:#000000"
     d="m 87.744498,152.61881 q -0.704,0 -1.184,-0.448 -0.448,-0.48 -0.448,-1.184 v -7.872 q 0,-1.824 -0.672,-2.976 -0.672,-1.152 -1.824,-1.696 -1.12,-0.576 -2.592,-0.576 -1.344,0 -2.432,0.544 -1.088,0.544 -1.728,1.472 -0.64,0.896 -0.64,2.08 h -2.016 q 0,-2.016 0.96,-3.584 0.992,-1.6 2.688,-2.528 1.696,-0.928 3.808,-0.928 2.208,0 3.936,0.96 1.76,0.928 2.752,2.752 1.024,1.824 1.024,4.48 v 7.872 q 0,0.704 -0.48,1.184 -0.448,0.448 -1.152,0.448 z m -13.152,0 q -0.704,0 -1.184,-0.448 -0.448,-0.48 -0.448,-1.184 v -14.272 q 0,-0.736 0.448,-1.184 0.48,-0.448 1.184,-0.448 0.736,0 1.184,0.448 0.448,0.448 0.448,1.184 v 14.272 q 0,0.704 -0.448,1.184 -0.448,0.448 -1.184,0.448 z"
     id="path39" /><path
     style="font-weight:bold;font-size:32px;font-family:Comfortaa;-inkscape-font-specification:'Comfortaa Bold';fill:#000000"
     d="m 58.656522,152.71481 q -2.336,0 -4.192,-1.152 -1.856,-1.184 -2.944,-3.168 -1.056,-2.016 -1.056,-4.544 0,-2.528 1.152,-4.544 1.184,-2.016 3.168,-3.168 2.016,-1.184 4.512,-1.184 2.496,0 4.48,1.184 1.984,1.152 3.136,3.168 1.184,2.016 1.184,4.544 h -1.248 q 0,2.528 -1.088,4.544 -1.056,1.984 -2.912,3.168 -1.856,1.152 -4.192,1.152 z m 0.64,-2.88 q 1.632,0 2.912,-0.768 1.28,-0.8 2.016,-2.144 0.736,-1.376 0.736,-3.072 0,-1.728 -0.736,-3.072 -0.736,-1.376 -2.016,-2.144 -1.28,-0.8 -2.912,-0.8 -1.6,0 -2.912,0.8 -1.28,0.768 -2.048,2.144 -0.736,1.344 -0.736,3.072 0,1.696 0.736,3.072 0.768,1.344 2.048,2.144 1.312,0.768 2.912,0.768 z m 7.168,2.784 q -0.704,0 -1.184,-0.448 -0.448,-0.48 -0.448,-1.184 v -4.896 l 0.608,-3.392 2.656,1.152 v 7.136 q 0,0.704 -0.48,1.184 -0.448,0.448 -1.152,0.448 z"
     id="path38" /><path
     style="font-weight:bold;font-size:32px;font-family:Comfortaa;-inkscape-font-specification:'Comfortaa Bold';fill:#000000"
     d="m 34.048563,152.58681 q -0.704,0 -1.184,-0.48 -0.48,-0.48 -0.48,-1.184 v -21.664 q 0,-0.736 0.48,-1.184 0.48,-0.48 1.184,-0.48 h 6.4 q 2.4,0 4.256,1.056 1.856,1.056 2.88,2.944 1.056,1.856 1.056,4.288 0,2.336 -1.056,4.16 -1.024,1.824 -2.88,2.848 -1.856,1.024 -4.256,1.024 h -4.736 v 7.008 q 0,0.704 -0.48,1.184 -0.448,0.48 -1.184,0.48 z m 1.664,-11.744 h 4.736 q 1.472,0 2.592,-0.64 1.12,-0.64 1.76,-1.76 0.64,-1.12 0.64,-2.56 0,-1.536 -0.64,-2.688 -0.64,-1.184 -1.76,-1.856 -1.12,-0.672 -2.592,-0.672 h -4.736 z"
     id="text1" /></svg>
