<?xml version="1.0" encoding="UTF-8" standalone="no"?>
<svg
   width="320"
   height="180"
   viewBox="0 0 320 180"
   fill="none"
   version="1.1"
   id="svg13"
   sodipodi:docname="ic_banner.svg"
   inkscape:version="1.3 (0e150ed6c4, 2023-07-21)"
   xml:space="preserve"
   xmlns:inkscape="http://www.inkscape.org/namespaces/inkscape"
   xmlns:sodipodi="http://sodipodi.sourceforge.net/DTD/sodipodi-0.dtd"
   xmlns="http://www.w3.org/2000/svg"
   xmlns:svg="http://www.w3.org/2000/svg"><path
     style="font-weight:bold;font-size:26.6934px;line-height:1.25;font-family:Comfortaa;-inkscape-font-specification:Comfortaa;text-align:end;letter-spacing:0px;word-spacing:0px;text-anchor:end;fill:#000000;stroke-width:0.241226;stroke:none"
     d="m 54.317626,153.2634 q -0.587255,0 -0.987656,-0.4004 -0.400401,-0.4004 -0.400401,-0.98766 v -18.07143 q 0,-0.61395 0.400401,-0.98766 0.400401,-0.4004 0.987656,-0.4004 h 5.33868 q 2.002004,0 3.550222,0.88088 1.548217,0.88089 2.402406,2.4558 0.880882,1.54821 0.880882,3.57691 0,1.94862 -0.880882,3.47014 -0.854189,1.52153 -2.402406,2.37572 -1.548218,0.85419 -3.550222,0.85419 h -3.950624 v 5.84585 q 0,0.58726 -0.400401,0.98766 -0.373707,0.4004 -0.987655,0.4004 z m 1.388056,-9.79648 h 3.950624 q 1.227896,0 2.162165,-0.53387 0.934269,-0.53387 1.468137,-1.46814 0.533868,-0.93426 0.533868,-2.13547 0,-1.28128 -0.533868,-2.24224 -0.533868,-0.98766 -1.468137,-1.54822 -0.934269,-0.56056 -2.162165,-0.56056 h -3.950624 z m 19.139134,9.90325 q -1.948618,0 -3.496835,-0.96096 -1.548217,-0.98766 -2.455793,-2.64265 -0.880882,-1.68168 -0.880882,-3.79046 0,-2.10878 0.960963,-3.79046 0.987655,-1.68169 2.642646,-2.64265 1.681684,-0.98766 3.763769,-0.98766 2.082086,0 3.737076,0.98766 1.654991,0.96096 2.615953,2.64265 0.987656,1.68168 0.987656,3.79046 h -1.041042 q 0,2.10878 -0.907576,3.79046 -0.880882,1.65499 -2.429099,2.64265 -1.548217,0.96096 -3.496836,0.96096 z m 0.533868,-2.40241 q 1.361364,0 2.4291,-0.64064 1.067736,-0.66733 1.681684,-1.78845 0.613948,-1.14782 0.613948,-2.56257 0,-1.44144 -0.613948,-2.56257 -0.613948,-1.14781 -1.681684,-1.78845 -1.067736,-0.66734 -2.4291,-0.66734 -1.33467,0 -2.429099,0.66734 -1.067736,0.64064 -1.708377,1.78845 -0.613949,1.12113 -0.613949,2.56257 0,1.41475 0.613949,2.56257 0.640641,1.12112 1.708377,1.78845 1.094429,0.64064 2.429099,0.64064 z m 5.979322,2.32233 q -0.587255,0 -0.987656,-0.37371 -0.373707,-0.4004 -0.373707,-0.98765 v -4.08409 l 0.507174,-2.8295 2.215552,0.96096 v 5.95263 q 0,0.58725 -0.400401,0.98765 -0.373707,0.37371 -0.960962,0.37371 z m 17.751092,0 q -0.587255,0 -0.987656,-0.37371 -0.373707,-0.4004 -0.373707,-0.98765 v -6.56658 q 0,-1.52152 -0.560561,-2.48249 -0.560562,-0.96096 -1.521524,-1.41475 -0.934269,-0.48048 -2.162166,-0.48048 -1.121122,0 -2.028698,0.45379 -0.907576,0.45379 -1.441444,1.2279 -0.533868,0.74741 -0.533868,1.73507 H 87.81779 q 0,-1.68169 0.800802,-2.98966 0.827496,-1.33467 2.242246,-2.10878 1.41475,-0.77411 3.176514,-0.77411 1.841845,0 3.283288,0.8008 1.468137,0.77411 2.295633,2.29564 0.854187,1.52152 0.854187,3.73707 v 6.56658 q 0,0.58725 -0.4004,0.98765 -0.373707,0.37371 -0.960962,0.37371 z m -10.970987,0 q -0.587255,0 -0.987656,-0.37371 -0.373707,-0.4004 -0.373707,-0.98765 v -11.90526 q 0,-0.61395 0.373707,-0.98765 0.400401,-0.37371 0.987656,-0.37371 0.613948,0 0.987656,0.37371 0.373707,0.3737 0.373707,0.98765 v 11.90526 q 0,0.58725 -0.373707,0.98765 -0.373708,0.37371 -0.987656,0.37371 z m 23.463479,0.0801 q -2.16217,0 -3.81716,-0.93427 -1.65499,-0.96096 -2.61595,-2.61595 -0.93427,-1.68169 -0.93427,-3.84385 0,-2.18886 0.93427,-3.84385 0.96096,-1.68168 2.61595,-2.61595 1.65499,-0.96097 3.81716,-0.96097 2.13547,0 3.79046,0.96097 1.65499,0.93427 2.58926,2.61595 0.96096,1.65499 0.96096,3.84385 0,2.16216 -0.93427,3.84385 -0.93427,1.65499 -2.58926,2.61595 -1.65499,0.93427 -3.81715,0.93427 z m 0,-2.40241 q 1.38805,0 2.45579,-0.64064 1.06774,-0.64064 1.65499,-1.76176 0.61395,-1.12112 0.61395,-2.58926 0,-1.46814 -0.61395,-2.58926 -0.58725,-1.14782 -1.65499,-1.78846 -1.06774,-0.64064 -2.45579,-0.64064 -1.38806,0 -2.4558,0.64064 -1.06773,0.64064 -1.68168,1.78846 -0.61395,1.12112 -0.61395,2.58926 0,1.46814 0.61395,2.58926 0.61395,1.12112 1.68168,1.76176 1.06774,0.64064 2.4558,0.64064 z m 26.1061,2.56257 q -1.70838,0 -3.2566,-0.53387 -1.54821,-0.53386 -2.69603,-1.49483 -1.14781,-0.96096 -1.68168,-2.21555 -0.26694,-0.56056 0,-1.04104 0.29362,-0.48048 0.96096,-0.61395 0.48048,-0.10677 0.93427,0.16016 0.48048,0.24024 0.72072,0.74742 0.32032,0.66733 1.04104,1.22789 0.74742,0.56056 1.78846,0.90758 1.04104,0.34701 2.18886,0.34701 1.28128,0 2.34902,-0.4004 1.09443,-0.4004 1.76176,-1.14782 0.66734,-0.7741 0.66734,-1.89523 0,-1.41475 -1.12113,-2.53587 -1.09442,-1.12112 -3.6303,-1.38806 -3.30998,-0.32032 -5.20521,-1.94861 -1.89523,-1.6283 -1.89523,-4.03071 0,-1.76176 0.98765,-2.98966 0.98766,-1.2279 2.66934,-1.86854 1.70838,-0.64064 3.79047,-0.64064 1.62829,0 2.8295,0.45379 1.22789,0.45379 2.13547,1.25459 0.90757,0.8008 1.57491,1.89523 0.37371,0.58726 0.29363,1.12112 -0.0534,0.50718 -0.50718,0.80081 -0.50717,0.32032 -1.09443,0.13346 -0.58725,-0.18685 -0.88088,-0.69403 -0.42709,-0.7741 -1.04104,-1.30797 -0.61395,-0.53387 -1.44145,-0.8275 -0.82749,-0.32032 -1.94861,-0.32032 -1.97531,-0.0267 -3.30998,0.74742 -1.33467,0.74741 -1.33467,2.32232 0,0.8008 0.4004,1.54822 0.42709,0.72072 1.52152,1.25459 1.12112,0.53387 3.20321,0.74741 3.17651,0.32033 4.93828,1.94862 1.78845,1.60161 1.78845,4.24425 0,1.52153 -0.64064,2.64265 -0.61395,1.12112 -1.68168,1.89523 -1.04104,0.74742 -2.40241,1.12112 -1.33467,0.37371 -2.77611,0.37371 z m 18.09812,-0.16016 q -2.13548,0 -3.81716,-0.96096 -1.65499,-0.98766 -2.61595,-2.64265 -0.93427,-1.68168 -0.93427,-3.79046 0,-2.16217 0.93427,-3.84385 0.93427,-1.68168 2.56256,-2.61595 1.6283,-0.96097 3.73708,-0.96097 1.57491,0 2.88289,0.61395 1.30797,0.58726 2.34902,1.78846 0.3737,0.42709 0.26693,0.88088 -0.10677,0.45379 -0.58725,0.8008 -0.37371,0.26694 -0.8275,0.18686 -0.45379,-0.10678 -0.8275,-0.48048 -1.30797,-1.38806 -3.25659,-1.38806 -1.36136,0 -2.40241,0.64064 -1.04104,0.61395 -1.62829,1.73507 -0.58726,1.12113 -0.58726,2.64265 0,1.44144 0.58726,2.56257 0.61394,1.12112 1.68168,1.78845 1.06774,0.64064 2.48249,0.64064 0.93427,0 1.62829,-0.21354 0.72073,-0.24024 1.30798,-0.72072 0.42709,-0.34702 0.88088,-0.37371 0.45379,-0.0534 0.8008,0.24024 0.45379,0.37371 0.50718,0.85419 0.0534,0.45379 -0.32032,0.82749 -1.92193,1.78846 -4.80481,1.78846 z m 10.73074,-9.23592 q 0,-1.6016 0.77411,-2.85619 0.8008,-1.28128 2.13547,-2.0287 1.33467,-0.74741 2.93628,-0.74741 1.6016,0 2.37571,0.53387 0.8008,0.50717 0.61395,1.22789 -0.0801,0.37371 -0.32032,0.58726 -0.21355,0.18685 -0.50718,0.24024 -0.29363,0.0534 -0.64064,-0.0267 -1.70838,-0.34701 -3.06974,-0.0534 -1.36136,0.29362 -2.16217,1.09443 -0.7741,0.8008 -0.7741,2.02869 z m 0.0267,9.12915 q -0.64065,0 -0.98766,-0.32032 -0.34701,-0.34702 -0.34701,-1.01435 v -11.93195 q 0,-0.64064 0.34701,-0.98766 0.34701,-0.34701 0.98766,-0.34701 0.66733,0 0.98765,0.34701 0.34702,0.32032 0.34702,0.98766 v 11.93195 q 0,0.64064 -0.34702,0.98765 -0.32032,0.34702 -0.98765,0.34702 z m 17.19052,0.10677 q -2.16216,0 -3.81715,-0.93427 -1.65499,-0.96096 -2.61596,-2.61595 -0.93426,-1.68169 -0.93426,-3.84385 0,-2.18886 0.93426,-3.84385 0.96097,-1.68168 2.61596,-2.61595 1.65499,-0.96097 3.81715,-0.96097 2.13548,0 3.79047,0.96097 1.65499,0.93427 2.58926,2.61595 0.96096,1.65499 0.96096,3.84385 0,2.16216 -0.93427,3.84385 -0.93427,1.65499 -2.58926,2.61595 -1.65499,0.93427 -3.81716,0.93427 z m 0,-2.40241 q 1.38806,0 2.4558,-0.64064 1.06773,-0.64064 1.65499,-1.76176 0.61395,-1.12112 0.61395,-2.58926 0,-1.46814 -0.61395,-2.58926 -0.58726,-1.14782 -1.65499,-1.78846 -1.06774,-0.64064 -2.4558,-0.64064 -1.38805,0 -2.45579,0.64064 -1.06773,0.64064 -1.68168,1.78846 -0.61395,1.12112 -0.61395,2.58926 0,1.46814 0.61395,2.58926 0.61395,1.12112 1.68168,1.76176 1.06774,0.64064 2.45579,0.64064 z m 18.73875,2.40241 q -2.08209,0 -3.73708,-0.96096 -1.65499,-0.98766 -2.61595,-2.66934 -0.96096,-1.68169 -0.98766,-3.79046 v -12.17219 q 0,-0.61395 0.37371,-0.98766 0.4004,-0.37371 0.98766,-0.37371 0.61394,0 0.98765,0.37371 0.37371,0.37371 0.37371,0.98766 v 7.20721 q 0.93427,-1.12112 2.24224,-1.76176 1.33467,-0.66734 2.90958,-0.66734 1.94862,0 3.49684,0.98766 1.54822,0.96096 2.4291,2.64265 0.90757,1.65499 0.90757,3.76377 0,2.10877 -0.98765,3.79046 -0.96096,1.68168 -2.61595,2.66934 -1.65499,0.96096 -3.76377,0.96096 z m 0,-2.40241 q 1.36136,0 2.4291,-0.64064 1.06773,-0.66733 1.68168,-1.81515 0.64064,-1.14781 0.64064,-2.56256 0,-1.44145 -0.64064,-2.56257 -0.61395,-1.12112 -1.68168,-1.76176 -1.06774,-0.66734 -2.4291,-0.66734 -1.33467,0 -2.4291,0.66734 -1.06774,0.64064 -1.68169,1.76176 -0.61395,1.12112 -0.61395,2.56257 0,1.41475 0.61395,2.56256 0.61395,1.14782 1.68169,1.81515 1.09443,0.64064 2.4291,0.64064 z m 18.76544,2.40241 q -2.08209,0 -3.73708,-0.96096 -1.65499,-0.98766 -2.61595,-2.66934 -0.96096,-1.68169 -0.98766,-3.79046 v -12.17219 q 0,-0.61395 0.37371,-0.98766 0.4004,-0.37371 0.98766,-0.37371 0.61395,0 0.98765,0.37371 0.37371,0.37371 0.37371,0.98766 v 7.20721 q 0.93427,-1.12112 2.24225,-1.76176 1.33467,-0.66734 2.90958,-0.66734 1.94861,0 3.49683,0.98766 1.54822,0.96096 2.4291,2.64265 0.90758,1.65499 0.90758,3.76377 0,2.10877 -0.98766,3.79046 -0.96096,1.68168 -2.61595,2.66934 -1.65499,0.96096 -3.76377,0.96096 z m 0,-2.40241 q 1.36136,0 2.4291,-0.64064 1.06773,-0.66733 1.68168,-1.81515 0.64064,-1.14781 0.64064,-2.56256 0,-1.44145 -0.64064,-2.56257 -0.61395,-1.12112 -1.68168,-1.76176 -1.06774,-0.66734 -2.4291,-0.66734 -1.33467,0 -2.4291,0.66734 -1.06774,0.64064 -1.68169,1.76176 -0.61394,1.12112 -0.61394,2.56257 0,1.41475 0.61394,2.56256 0.61395,1.14782 1.68169,1.81515 1.09443,0.64064 2.4291,0.64064 z m 14.89488,2.29564 q -1.17451,0 -2.08208,-0.64064 -0.90758,-0.64065 -1.41475,-1.73508 -0.50718,-1.12112 -0.50718,-2.56256 v -14.5746 q 0,-0.58725 0.37371,-0.96096 0.37371,-0.37371 0.96096,-0.37371 0.58726,0 0.96096,0.37371 0.37371,0.37371 0.37371,0.96096 v 14.5746 q 0,0.98765 0.37371,1.6283 0.37371,0.64064 0.96096,0.64064 h 0.66734 q 0.53387,0 0.85419,0.3737 0.34701,0.37371 0.34701,0.96097 0,0.58725 -0.50717,0.96096 -0.50718,0.37371 -1.30798,0.37371 z m 10.59725,0.10677 q -2.21555,0 -3.95063,-0.93427 -1.70837,-0.96096 -2.69603,-2.61595 -0.96096,-1.68169 -0.96096,-3.84385 0,-2.18886 0.90757,-3.84385 0.93427,-1.68168 2.56257,-2.61595 1.6283,-0.96097 3.73708,-0.96097 2.08208,0 3.57691,0.93427 1.49483,0.90758 2.26894,2.53588 0.8008,1.6016 0.8008,3.71038 0,0.50717 -0.34701,0.85419 -0.34702,0.32032 -0.88088,0.32032 h -10.75744 v -2.13547 h 10.67736 l -1.09443,0.74741 q -0.0267,-1.33467 -0.53387,-2.37571 -0.50718,-1.06774 -1.44144,-1.68169 -0.93427,-0.61394 -2.26894,-0.61394 -1.52153,0 -2.61596,0.66733 -1.06773,0.66734 -1.62829,1.84185 -0.56057,1.14781 -0.56057,2.61595 0,1.46814 0.66734,2.61595 0.66733,1.14782 1.84184,1.81515 1.17451,0.66734 2.69604,0.66734 0.82749,0 1.68168,-0.29363 0.88088,-0.32032 1.41475,-0.72072 0.4004,-0.29363 0.85419,-0.29363 0.48048,-0.0267 0.8275,0.26694 0.45378,0.4004 0.48048,0.88088 0.0267,0.48048 -0.4271,0.82749 -0.90757,0.72073 -2.26894,1.17451 -1.33467,0.45379 -2.56256,0.45379 z m 11.02438,-9.23592 q 0,-1.6016 0.77411,-2.85619 0.80081,-1.28128 2.13548,-2.0287 1.33467,-0.74741 2.93627,-0.74741 1.6016,0 2.37571,0.53387 0.8008,0.50717 0.61395,1.22789 -0.0801,0.37371 -0.32032,0.58726 -0.21355,0.18685 -0.50718,0.24024 -0.29362,0.0534 -0.64064,-0.0267 -1.70837,-0.34701 -3.06974,-0.0534 -1.36136,0.29362 -2.16216,1.09443 -0.77411,0.8008 -0.77411,2.02869 z m 0.0267,9.12915 q -0.64064,0 -0.98766,-0.32032 -0.34701,-0.34702 -0.34701,-1.01435 v -11.93195 q 0,-0.64064 0.34701,-0.98766 0.34702,-0.34701 0.98766,-0.34701 0.66733,0 0.98765,0.34701 0.34702,0.32032 0.34702,0.98766 v 11.93195 q 0,0.64064 -0.34702,0.98765 -0.32032,0.34702 -0.98765,0.34702 z"
     id="text13"
     inkscape:label="text13"
     aria-label="Pano Scrobbler"
     transform="scale(1.0013304,0.99867137)" /><sodipodi:namedview
     id="namedview13"
     pagecolor="#ffffff"
     bordercolor="#eeeeee"
     borderopacity="1"
     inkscape:showpageshadow="0"
     inkscape:pageopacity="0"
     inkscape:pagecheckerboard="0"
     inkscape:deskcolor="#d1d1d1"
     inkscape:zoom="2.7820232"
     inkscape:cx="226.4539"
     inkscape:cy="75.304908"
     inkscape:window-width="2560"
     inkscape:window-height="1406"
     inkscape:window-x="-11"
     inkscape:window-y="-11"
     inkscape:window-maximized="1"
     inkscape:current-layer="svg13" /><defs
     id="defs13"><radialGradient
       id="paint0_radial_6_10374"
       cx="0"
       cy="0"
       r="1"
       gradientUnits="userSpaceOnUse"
       gradientTransform="translate(42.7245 71.5788) rotate(49.4258) scale(45.0733)"><stop
         stop-color="#376A80"
         id="stop12" /><stop
         offset="1"
         stop-color="#013145"
         id="stop13" /></radialGradient></defs><rect
     style="opacity:0.707;fill:none;stroke:#4f330c;stroke-width:1.04247;stroke-linecap:round;stroke-dasharray:none"
     id="rect3"
     width="266.95752"
     height="126.95753"
     x="26.521236"
     y="26.521236" /><path
     style="fill:#000000;fill-opacity:1;stroke:none;stroke-width:1.18156"
     d="m 104,80.070809 c 0,0 2.57947,2.67809 5.8547,2.894091 0,0 -1.12052,1.294577 -5.15074,1.841403 5.71612,1.426628 11.31396,9.915112 15.85281,15.951317 6.31181,8.39406 23.19444,20.71119 41.41694,22.32788 19.05372,1.69042 50.12542,-7.16674 50.02606,-25.553613 -0.0994,-18.386878 -26.61682,-14.148951 -26.61682,-26.982978 0,-12.834028 21.39117,-17.208023 26.58941,-4.637767 -2.67993,-25.426828 -34.16282,-14.362955 -34.06499,4.694777 0.0978,19.05772 26.54109,13.572207 26.54109,27.014857 0,13.442644 -26.57475,19.265264 -42.83693,18.407944 -16.26218,-0.85732 -36.3214,-15.56435 -44.16262,-33.689563 4.81517,-9.653503 9.47551,-14.181609 16.97411,-20.622106 18.49654,-15.886601 22.05612,-5.773116 26.68751,-5.206629 6.63701,0.811779 10.08409,-0.109885 15.34985,-5.517486 -6.5344,1.779407 -9.31101,1.842065 -13.46421,0.0047 7.25721,-0.636648 10.8771,-3.480274 12.18286,-11.472881 -14.43725,13.706598 -13.18924,-0.50175 -27.9313,5.18731 -20.76155,8.012032 -33.86683,29.770788 -35.93533,34.07233 -0.71218,1.481027 -3.63301,2.372455 -7.3124,1.287015 z"
     id="path826-7"
     inkscape:connector-curvature="0"
     sodipodi:nodetypes="cccsszzczzscsscccsscc" /><path
     style="color:#000000;fill:#000000;-inkscape-stroke:none;stroke:none"
     d="m 154.23437,34.345703 c -2.89729,0 -5.30523,1.720664 -7.05859,3.902344 -1.75336,2.18168 -3.10702,4.988545 -4.24023,8.322265 -2.26644,6.667441 -3.58008,15.489438 -3.58008,25.234375 0,9.744938 1.31364,18.566935 3.58008,25.234375 1.13321,3.333718 2.48687,6.140588 4.24023,8.322268 1.75336,2.18168 4.1613,3.90234 7.05859,3.90234 2.8973,0 5.30719,-1.72066 7.06055,-3.90234 1.75336,-2.18168 3.10507,-4.98855 4.23828,-8.322268 2.26644,-6.66744 3.58008,-15.489437 3.58008,-25.234375 0,-9.744937 -1.31364,-18.566934 -3.58008,-25.234375 -1.13321,-3.33372 -2.48492,-6.140585 -4.23828,-8.322265 -1.75336,-2.18168 -4.16325,-3.902344 -7.06055,-3.902344 z m 0,6.5 c 0.31379,0 0.96511,0.194202 1.99415,1.474609 1.02903,1.280408 2.18124,3.484998 3.15234,6.341797 1.9422,5.713599 3.23242,13.994688 3.23242,23.142578 0,9.147891 -1.29022,17.42898 -3.23242,23.142579 -0.9711,2.856799 -2.12331,5.061394 -3.15234,6.341794 -1.02904,1.28041 -1.68036,1.47461 -1.99415,1.47461 -0.31378,0 -0.96315,-0.1942 -1.99218,-1.47461 -1.02903,-1.2804 -2.18125,-3.484995 -3.15235,-6.341794 -1.9422,-5.713599 -3.23437,-13.994688 -3.23437,-23.142579 0,-9.14789 1.29217,-17.428979 3.23437,-23.142578 0.9711,-2.856799 2.12332,-5.061389 3.15235,-6.341797 1.02903,-1.280407 1.6784,-1.474609 1.99218,-1.474609 z"
     id="path832-3"
     transform="matrix(0.99813779,0.06099961,-0.03254954,0.99947012,0,0)" /><path
     sodipodi:nodetypes="cssc"
     inkscape:connector-curvature="0"
     id="path831-2"
     d="m 104.3713,70.584462 c 11.97279,-25.41448 24.66642,-34.861198 50.46542,-38.365222 4.49398,-0.610371 4.20252,-6.514109 -1.03835,-6.207718 -25.13957,1.469695 -46.89977,18.361922 -49.42707,44.57294 z"
     style="fill:#000000;fill-opacity:1;stroke:none;stroke-width:1.18156" /><path
     style="fill:#000000;fill-opacity:1;stroke:none;stroke-width:6.28823;stroke-miterlimit:4;stroke-dasharray:none"
     d="m 159.31153,64.967406 a 7.3133675,16.542251 2.3652033 0 0 -4.40979,2.952401 3.2467501,5.4929384 0 0 1 1.89447,4.988832 3.2467501,5.4929384 0 0 1 -3.24674,5.493511 3.2467501,5.4929384 0 0 1 -1.88172,-1.022664 7.3133675,16.542251 2.3652033 0 0 -0.36145,3.772747 7.3133675,16.542251 2.3652033 0 0 6.60405,16.871821 7.3133675,16.542251 2.3652033 0 0 8.00734,-16.184839 7.3133675,16.542251 2.3652033 0 0 -6.60616,-16.871809 z"
     id="ellipse827-4"
     inkscape:connector-curvature="0" /></svg>
