<?xml version="1.0" encoding="UTF-8" standalone="no"?>
<svg
   xmlns:dc="http://purl.org/dc/elements/1.1/"
   xmlns:cc="http://creativecommons.org/ns#"
   xmlns:rdf="http://www.w3.org/1999/02/22-rdf-syntax-ns#"
   xmlns:svg="http://www.w3.org/2000/svg"
   xmlns="http://www.w3.org/2000/svg"
   xmlns:sodipodi="http://sodipodi.sourceforge.net/DTD/sodipodi-0.dtd"
   xmlns:inkscape="http://www.inkscape.org/namespaces/inkscape"
   height="24"
   viewBox="0 0 24 24"
   width="24"
   version="1.1"
   id="svg4"
   sodipodi:docname="play_circle_outline_check2.svg"
   inkscape:version="0.92.4 (5da689c313, 2019-01-14)">
  <metadata
     id="metadata10">
    <rdf:RDF>
      <cc:Work
         rdf:about="">
        <dc:format>image/svg+xml</dc:format>
        <dc:type
           rdf:resource="http://purl.org/dc/dcmitype/StillImage" />
      </cc:Work>
    </rdf:RDF>
  </metadata>
  <defs
     id="defs8" />
  <sodipodi:namedview
     pagecolor="#ffffff"
     bordercolor="#666666"
     borderopacity="1"
     objecttolerance="10"
     gridtolerance="10"
     guidetolerance="10"
     inkscape:pageopacity="0"
     inkscape:pageshadow="2"
     inkscape:window-width="1825"
     inkscape:window-height="1046"
     id="namedview6"
     showgrid="false"
     inkscape:zoom="1.2291667"
     inkscape:cx="-81.67372"
     inkscape:cy="117.44644"
     inkscape:window-x="84"
     inkscape:window-y="-11"
     inkscape:window-maximized="1"
     inkscape:current-layer="svg4" />
  <path
     d="M 12,2 C 6.48,2 2,6.48 2,12 c 0,4.639505 3.1699484,8.532485 7.4570312,9.660156 1.1193178,-0.326241 1.1424848,-1.4352 0,-2.082031 C 6.2908287,18.51183 4,15.520309 4,12 4,7.59 7.59,4 12,4 c 4.237245,0 7.708447,3.316848 7.974609,7.488281 0.425326,1.275704 1.868072,1.150165 2,0 C 21.706125,6.2074619 17.347171,2 12,2 Z"
     id="path2"
     inkscape:connector-curvature="0"
     sodipodi:nodetypes="ssccssccs" />
  <g
     id="g831"
     transform="matrix(0.53858286,0,0,0.53858286,5.6082947,5.5323338)">
    <path
       id="path817"
       d="M 0,0 H 24 V 24 H 0 Z"
       inkscape:connector-curvature="0"
       style="fill:none" />
    <path
       id="path819"
       d="m 12,5 v 8.55 C 11.06,13.01 9.9,12.8 8.67,13.23 7.33,13.71 6.3,14.9 6.06,16.3 5.6,19.04 7.92,21.38 10.65,20.95 12.61,20.64 14,18.84 14,16.85 V 7 h 2 C 17.1,7 18,6.1 18,5 18,3.9 17.1,3 16,3 h -2 c -1.1,0 -2,0.9 -2,2 z"
       inkscape:connector-curvature="0" />
  </g>
  <path
     inkscape:connector-curvature="0"
     d="m 16.689436,22.913578 c -0.48053,0.480531 -1.269093,0.480531 -1.749624,0 l -2.550508,-2.575151 c -0.46821,-0.480531 -0.46821,-1.244451 0,-1.71266 l 0.01232,-0.01232 c 0.480531,-0.48053 1.256772,-0.48053 1.724982,0 l 1.688017,1.688018 5.458335,-5.495298 c 0.48053,-0.480531 1.256772,-0.480531 1.737303,0 l 0.01232,0.01232 c 0.46821,0.480531 0.46821,1.244451 0,1.71266 z"
     id="path6"
     style="stroke-width:1.23212969" />
</svg>
