<?xml version="1.0" encoding="UTF-8" standalone="no"?>
<svg
   xmlns:dc="http://purl.org/dc/elements/1.1/"
   xmlns:cc="http://creativecommons.org/ns#"
   xmlns:rdf="http://www.w3.org/1999/02/22-rdf-syntax-ns#"
   xmlns:svg="http://www.w3.org/2000/svg"
   xmlns="http://www.w3.org/2000/svg"
   xmlns:sodipodi="http://sodipodi.sourceforge.net/DTD/sodipodi-0.dtd"
   xmlns:inkscape="http://www.inkscape.org/namespaces/inkscape"
   height="24"
   viewBox="0 0 24 24"
   width="24"
   version="1.1"
   id="svg6"
   sodipodi:docname="vd_album_artist.svg"
   inkscape:version="1.0 (4035a4fb49, 2020-05-01)">
  <metadata
     id="metadata12">
    <rdf:RDF>
      <cc:Work
         rdf:about="">
        <dc:format>image/svg+xml</dc:format>
        <dc:type
           rdf:resource="http://purl.org/dc/dcmitype/StillImage" />
      </cc:Work>
    </rdf:RDF>
  </metadata>
  <defs
     id="defs10" />
  <sodipodi:namedview
     inkscape:document-rotation="0"
     pagecolor="#ffffff"
     bordercolor="#666666"
     borderopacity="1"
     objecttolerance="10"
     gridtolerance="10"
     guidetolerance="10"
     inkscape:pageopacity="0"
     inkscape:pageshadow="2"
     inkscape:window-width="1825"
     inkscape:window-height="1046"
     id="namedview8"
     showgrid="false"
     inkscape:zoom="16"
     inkscape:cx="7.5523908"
     inkscape:cy="3.341169"
     inkscape:window-x="84"
     inkscape:window-y="-11"
     inkscape:window-maximized="1"
     inkscape:current-layer="svg6" />
  <path
     style="opacity:0.463259;fill:#ff5555"
     d="m -28,2 c -5.52,0 -10,4.48 -10,10 0,5.52 4.48,10 10,10 5.52,0 10,-4.48 10,-10 0,-5.52 -4.48,-10 -10,-10 z m 0,18 c -4.41,0 -8,-3.59 -8,-8 0,-4.41 3.59,-8 8,-8 4.41,0 8,3.59 8,8 0,4.41 -3.59,8 -8,8 z m 0,-12.5 c -2.49,0 -4.5,2.01 -4.5,4.5 0,2.49 2.01,4.5 4.5,4.5 2.49,0 4.5,-2.01 4.5,-4.5 0,-2.49 -2.01,-4.5 -4.5,-4.5 z m 0,5.5 c -0.55,0 -1,-0.45 -1,-1 0,-0.55 0.45,-1 1,-1 0.55,0 1,0.45 1,1 0,0.55 -0.45,1 -1,1 z"
     id="path4-6" />
  <path
     d="M0 0h24v24H0V0z"
     fill="none"
     id="path2" />
  <path
     style="opacity:1"
     id="path4"
     d="M 12,2 C 6.48,2 2,6.48 2,12 c 0,5.52 4.0425,9 8.15625,9.8125 1.176588,0.232386 1.637553,-0.06149 1.728325,-0.673038 C 11.992153,20.414687 10.859622,19.986532 10.15625,19.78125 7.1887725,18.91518 4,16.41 4,12 4,7.59 7.59,4 12,4 c 3.325758,0 5.64381,2.0163452 6.758906,3.7663545 1.115096,1.7500093 1.789697,1.3331371 1.997061,1.2000327 C 21.06956,8.7650959 21.493264,8.4462182 20.538017,6.873377 19.561554,5.2656029 16.857814,2 12,2 Z m 0,5.5 c -2.49,0 -4.5,2.01 -4.5,4.5 0,2.295245 1.7142363,4.162157 3.931641,4.443359 -0.06539,-0.370795 -0.09871,-0.746532 -0.09961,-1.123047 6.07e-4,-0.809012 0.150924,-1.610925 0.44336,-2.365234 C 11.335799,12.850104 11,12.470556 11,12 c 0,-0.55 0.45,-1 1,-1 0.278101,0 0.529217,0.115925 0.710938,0.300781 0.726819,-0.936868 1.694085,-1.6591109 2.798828,-2.0898435 C 14.686173,8.175348 13.42962,7.5 12,7.5 Z"
     sodipodi:nodetypes="sssassszssssscccssccs" />
  <path
     id="path2-9"
     d="m 17.575905,17.574423 c 1.061913,0 1.919121,-0.857206 1.919121,-1.919119 v -3.838241 c 0,-1.061914 -0.857208,-1.919121 -1.919121,-1.919121 -1.061913,0 -1.91912,0.857207 -1.91912,1.919121 v 3.838241 c 0,1.061913 0.857207,1.919119 1.91912,1.919119 z m -0.639706,-5.75736 c 0,-0.35184 0.287867,-0.639707 0.639706,-0.639707 0.351839,0 0.639707,0.287867 0.639707,0.639707 v 3.838241 c 0,0.351838 -0.287868,0.639706 -0.639707,0.639706 -0.351839,0 -0.639706,-0.287868 -0.639706,-0.639706 z m 4.420373,3.838241 c -0.313456,0 -0.575736,0.230294 -0.626912,0.54375 -0.26228,1.503311 -1.573679,2.654784 -3.153755,2.654784 -1.580076,0 -2.891474,-1.151473 -3.153754,-2.654784 -0.05117,-0.313456 -0.313457,-0.54375 -0.626913,-0.54375 -0.390221,0 -0.69728,0.345441 -0.639706,0.729265 0.313456,1.919121 1.848752,3.422431 3.780667,3.697506 v 1.33059 c 0,0.351838 0.287867,0.639706 0.639706,0.639706 0.351839,0 0.639707,-0.287868 0.639707,-0.639706 v -1.33059 c 1.931915,-0.275075 3.467211,-1.778385 3.780667,-3.697506 0.06397,-0.383824 -0.249486,-0.729265 -0.639707,-0.729265 z"
     style="stroke-width:0.639707" />
</svg>
