<?xml version="1.0" encoding="UTF-8" standalone="no"?>
<!-- Created with Inkscape (http://www.inkscape.org/) -->

<svg
   width="108"
   height="108"
   viewBox="0 0 108 108"
   version="1.1"
   id="svg8"
   inkscape:version="1.4.2 (ebf0e940d0, 2025-05-08)"
   sodipodi:docname="vd_noti_err_flattened.svg"
   xmlns:inkscape="http://www.inkscape.org/namespaces/inkscape"
   xmlns:sodipodi="http://sodipodi.sourceforge.net/DTD/sodipodi-0.dtd"
   xmlns="http://www.w3.org/2000/svg"
   xmlns:svg="http://www.w3.org/2000/svg"
   xmlns:rdf="http://www.w3.org/1999/02/22-rdf-syntax-ns#"
   xmlns:cc="http://creativecommons.org/ns#"
   xmlns:dc="http://purl.org/dc/elements/1.1/">
  <defs
     id="defs2" />
  <sodipodi:namedview
     id="base"
     pagecolor="#ffffff"
     bordercolor="#666666"
     borderopacity="1.0"
     inkscape:pageopacity="0.0"
     inkscape:pageshadow="2"
     inkscape:zoom="1.979899"
     inkscape:cx="70.963216"
     inkscape:cy="72.983521"
     inkscape:document-units="px"
     inkscape:current-layer="layer1"
     showgrid="true"
     inkscape:window-width="1707"
     inkscape:window-height="888"
     inkscape:window-x="0"
     inkscape:window-y="0"
     inkscape:window-maximized="1"
     units="px"
     inkscape:showpageshadow="2"
     inkscape:pagecheckerboard="0"
     inkscape:deskcolor="#d1d1d1" />
  <metadata
     id="metadata5">
    <rdf:RDF>
      <cc:Work
         rdf:about="">
        <dc:format>image/svg+xml</dc:format>
        <dc:type
           rdf:resource="http://purl.org/dc/dcmitype/StillImage" />
        <dc:title />
      </cc:Work>
    </rdf:RDF>
  </metadata>
  <g
     inkscape:label="Layer 1"
     inkscape:groupmode="layer"
     id="layer1"
     transform="translate(0,-236.06667)">
    <path
       d="m 52.21875,262.84206 c -5.414994,0.003 -11.212434,2.13036 -16.707031,5.5957 -8.372721,5.28052 -16.399303,13.89822 -22.13086,24.73633 l -0.902343,1.70703 6.826171,11.88672 0.115235,0.15625 c 9.896947,13.50013 22.605711,20.17622 34.847656,22.2461 a 3.5,3.5 0 0 0 4.035156,-2.86915 3.5,3.5 0 0 0 -2.86914,-4.0332 C 44.843507,320.47726 34.010491,314.9186 25.152344,302.89479 l -4.613282,-8.0332 c 5.108614,-9.01272 11.962506,-16.2483 18.707032,-20.50195 7.152689,-4.51107 13.754083,-5.51353 17.910156,-3.41211 a 3.5,3.5 0 0 0 4.703125,-1.54492 3.5,3.5 0 0 0 -1.544922,-4.70313 c -1.838909,-0.9298 -3.784831,-1.49013 -5.800781,-1.72656 -0.755981,-0.0887 -1.521351,-0.13124 -2.294922,-0.13086 z"
       style=""
       id="path5" />
    <path
       d="m 47.632812,244.31862 c -14.685733,0.4097 -30.877341,10.77797 -41.8867183,31.66211 a 3,3 0 0 0 1.2558594,4.05274 3,3 0 0 0 4.0527349,-1.25391 C 22.78696,256.52413 39.890061,248.44768 52.800781,250.66433 a 3,3 0 0 0 3.462891,-2.44922 3,3 0 0 0 -2.449219,-3.46289 c -2.017025,-0.3463 -4.083679,-0.49213 -6.181641,-0.4336 z"
       style=""
       id="path4" />
    <path
       d="m 88.203125,306.26394 a 6.3752126,6.3752126 0 0 0 -6.375,6.375 6.3752126,6.3752126 0 0 0 6.375,6.375 6.3752126,6.3752126 0 0 0 6.375,-6.375 6.3752126,6.3752126 0 0 0 -6.375,-6.375 z"
       style=""
       id="path2" />
    <path
       d="m 88.203125,261.63698 c -3.506367,0 -6.375,2.86864 -6.375,6.375 v 25.50196 c 0,3.50636 2.868633,6.375 6.375,6.375 3.506367,0 6.375,-2.86864 6.375,-6.375 v -25.50196 c 0,-3.50636 -2.868633,-6.375 -6.375,-6.375 z"
       style=""
       id="path1" />
    <path
       d="m 50.986328,263.53151 c -2.53497,-0.13872 -4.785498,1.11745 -6.486328,2.85157 -1.700829,1.73412 -3.050351,4.0174 -4.203125,6.73437 -2.305549,5.43396 -3.777414,12.66343 -4.070313,20.7168 -0.292899,8.05337 0.64887,15.41588 2.550782,21.08008 0.950956,2.83209 2.129081,5.253 3.697265,7.16601 1.568185,1.91301 3.718936,3.41011 6.253907,3.54883 2.534969,0.13872 4.783545,-1.11744 6.484375,-2.85156 1.700829,-1.73412 3.052303,-4.0174 4.205078,-6.73438 2.305548,-5.43395 3.77546,-12.66342 4.068359,-20.71679 0.292899,-8.05337 -0.646916,-15.41588 -2.548828,-21.08008 -0.950956,-2.8321 -2.129082,-5.25301 -3.697266,-7.16602 -1.568185,-1.91301 -3.718937,-3.4101 -6.253906,-3.54883 z m -0.21875,5.9961 c 0.401641,0.022 0.994056,0.24933 1.867188,1.31445 0.873132,1.06512 1.836125,2.87717 2.625,5.22656 1.577748,4.69879 2.506868,11.49109 2.236328,18.92969 -0.27054,7.4386 -1.688974,14.1055 -3.601563,18.61328 -0.956294,2.25389 -2.047154,3.95245 -2.99414,4.91797 -0.946986,0.96552 -1.553437,1.12745 -1.955079,1.10547 -0.401641,-0.022 -0.992101,-0.24933 -1.865234,-1.31445 -0.873131,-1.06512 -1.834172,-2.87718 -2.623047,-5.22657 -1.577747,-4.69878 -2.508821,-11.49303 -2.238281,-18.93164 0.27054,-7.4386 1.690927,-14.10354 3.603516,-18.61133 0.956294,-2.25388 2.045202,-3.95245 2.992187,-4.91796 0.946986,-0.96552 1.551484,-1.12745 1.953125,-1.10547 z"
       style=""
       id="path6" />
    <path
       d="m 56.425781,280.89479 a 6.1894559,13.834939 2.4075735 0 0 -3.732422,2.47071 2.7478492,4.5938668 0 0 1 1.603516,4.17187 2.7478492,4.5938668 0 0 1 -2.748047,4.59375 2.7478492,4.5938668 0 0 1 -1.591797,-0.85547 6.1894559,13.834939 2.4075735 0 0 -0.30664,3.15625 6.1894559,13.834939 2.4075735 0 0 5.589843,14.10938 6.1894559,13.834939 2.4075735 0 0 6.777344,-13.53516 6.1894559,13.834939 2.4075735 0 0 -5.591797,-14.11133 z"
       style=""
       id="path7" />
  </g>
</svg>
